<?xml version="1.0" encoding="utf-8"?>
<!-- Generator: Adobe Illustrator 16.0.0, SVG Export Plug-In . SVG Version: 6.00 Build 0)  -->
<!DOCTYPE svg PUBLIC "-//W3C//DTD SVG 1.1//EN" "http://www.w3.org/Graphics/SVG/1.1/DTD/svg11.dtd">
<svg version="1.1" id="Layer_1" xmlns="http://www.w3.org/2000/svg" xmlns:xlink="http://www.w3.org/1999/xlink" x="0px" y="0px"
	 width="200px" height="37.275px" viewBox="0 0 200 37.275" enable-background="new 0 0 200 37.275" xml:space="preserve">
<path d="M43.871,0.752h17.947c6.778,0,10.48,3.954,10.48,8.849c0,4.143-2.699,6.965-5.899,7.843c3.764,0.879,6.651,4.395,6.651,8.47
	c0,5.336-3.828,9.352-10.73,9.352H43.871V0.752z M60.813,6.715H50.708v7.97h10.105c2.887,0,4.52-1.696,4.52-3.954
	C65.333,8.346,63.637,6.715,60.813,6.715z M61.128,20.646h-10.42v8.659h10.42c3.011,0,4.894-1.63,4.894-4.268
	C66.022,22.716,64.263,20.646,61.128,20.646z"/>
<path d="M81.997,0.752h6.838v34.514h-6.838V0.752z"/>
<path d="M107.023,6.715h-10.17V0.752h27.239v5.962h-10.23v28.552h-6.838V6.715z"/>
<path d="M131.845,0.752h25.164v5.962h-18.325v7.97h17.945v5.96h-17.945v8.659h18.325v5.962h-25.164V0.752z"/>
<path d="M195.168,30.684l2.826,3.202l-4.143,3.39l-3.009-3.39c-2.577,1.381-5.649,2.131-9.041,2.131
	c-10.921,0-18.263-7.716-18.263-18.006c0-10.292,7.342-18.01,18.263-18.01C192.595,0,200,7.718,200,18.01
	C200,23.029,198.244,27.485,195.168,30.684z M186.573,28.99l-4.016-4.518l4.14-3.451l4.015,4.58c1.51-2.072,2.323-4.644,2.323-7.591
	c0-6.842-4.456-11.986-11.233-11.986c-6.904,0-11.296,5.145-11.296,11.986c0,6.779,4.392,11.985,11.296,11.985
	C183.561,29.995,185.131,29.618,186.573,28.99z"/>
<g>
	<polygon points="14.298,0.752 0,35.267 7.646,35.267 21.943,0.752 	"/>
	<polygon points="36.255,35.263 25.776,9.966 21.953,19.193 28.61,35.263 	"/>
</g>
</svg>
