<?xml version="1.0" encoding="utf-8"?>
<!-- Generator: Adobe Illustrator 16.0.0, SVG Export Plug-In . SVG Version: 6.00 Build 0)  -->
<!DOCTYPE svg PUBLIC "-//W3C//DTD SVG 1.1//EN" "http://www.w3.org/Graphics/SVG/1.1/DTD/svg11.dtd">
<svg version="1.1" id="Layer_1" xmlns="http://www.w3.org/2000/svg" xmlns:xlink="http://www.w3.org/1999/xlink" x="0px" y="0px"
	 width="135.229px" height="151.803px" viewBox="0 0 135.229 151.803" enable-background="new 0 0 135.229 151.803"
	 xml:space="preserve">
<g>
	<path fill="#010202" d="M135.229,53.656c-0.59,0.866-1.304,1.646-2.046,2.397c-0.754,0.738-1.543,1.455-2.4,2.082
		c-0.842,0.653-1.732,1.244-2.65,1.795c-0.465,0.264-0.919,0.556-1.398,0.797l-1.451,0.704c-0.489,0.226-0.994,0.411-1.493,0.619
		c-0.498,0.214-1.005,0.397-1.521,0.555l-1.547,0.5l-1.577,0.395c-1.051,0.299-2.131,0.394-3.204,0.592
		c-1.077,0.144-2.161,0.214-3.249,0.31c-1.183-0.001-2.092,0.051-3.212,0.013c-1.109-0.086-2.273-0.092-3.348-0.284l-1.643-0.236
		l-1.627-0.348c-1.093-0.206-2.151-0.574-3.22-0.9c-1.052-0.381-2.104-0.773-3.122-1.258c-0.52-0.218-1.014-0.491-1.516-0.751
		c-0.507-0.25-0.994-0.541-1.478-0.84c-0.976-0.579-1.905-1.245-2.816-1.948c-0.449-0.366-0.899-0.723-1.333-1.13
		c-0.218-0.197-0.437-0.398-0.652-0.619c-0.228-0.226-0.407-0.407-0.696-0.742h4.245c-0.277,0.345-0.449,0.533-0.669,0.769
		c-0.208,0.229-0.418,0.438-0.628,0.646c-0.419,0.426-0.854,0.802-1.292,1.188c-0.886,0.743-1.795,1.453-2.754,2.077
		c-0.946,0.646-1.938,1.22-2.953,1.736c-1.011,0.533-2.059,0.977-3.112,1.408c-0.528,0.21-1.07,0.379-1.606,0.569
		c-0.535,0.195-1.077,0.36-1.627,0.497l-1.646,0.429l-1.666,0.312c-1.107,0.243-2.231,0.298-3.349,0.442
		c-1.119,0.096-2.239,0.106-3.358,0.158l-1.667-0.062c-0.536-0.031-1-0.016-1.597-0.087c-1.147-0.143-2.356-0.208-3.444-0.449
		l-1.665-0.312l-1.646-0.426c-0.55-0.138-1.092-0.301-1.627-0.498c-0.536-0.19-1.078-0.358-1.606-0.569
		c-1.054-0.432-2.102-0.875-3.112-1.408c-1.016-0.519-2.01-1.087-2.955-1.735c-0.959-0.625-1.869-1.334-2.755-2.078
		c-0.438-0.387-0.874-0.763-1.292-1.189c-0.211-0.206-0.421-0.417-0.629-0.646c-0.221-0.235-0.392-0.425-0.672-0.769h4.258
		c-0.287,0.337-0.469,0.518-0.695,0.744c-0.216,0.222-0.434,0.422-0.652,0.619c-0.434,0.408-0.884,0.764-1.334,1.131
		c-0.912,0.703-1.842,1.369-2.817,1.948c-0.962,0.604-1.971,1.121-2.992,1.592c-1.02,0.484-2.07,0.877-3.123,1.258
		c-1.068,0.326-2.126,0.697-3.22,0.902l-1.628,0.347L29.1,64.138c-1.089,0.194-2.194,0.194-3.287,0.281
		c-0.546,0.043-1.094,0.003-1.64,0.009l-1.701-0.02c-1.046-0.096-2.052-0.163-3.13-0.306c-1.093-0.197-2.216-0.3-3.257-0.596
		l-1.577-0.396l-1.547-0.5c-0.518-0.156-1.024-0.341-1.522-0.556c-0.499-0.208-1.004-0.394-1.493-0.62l-1.451-0.705
		c-0.479-0.239-0.935-0.534-1.399-0.797c-0.917-0.552-1.809-1.143-2.649-1.797c-0.856-0.628-1.646-1.345-2.4-2.083
		C1.303,55.303,0.589,54.522,0,53.656c0.763,0.715,1.591,1.339,2.437,1.926c0.862,0.566,1.733,1.106,2.64,1.581
		c0.894,0.489,1.824,0.909,2.765,1.285c0.938,0.386,1.899,0.696,2.854,1.009c0.48,0.148,0.975,0.257,1.457,0.388
		c0.481,0.137,0.972,0.244,1.468,0.324l1.474,0.269l1.489,0.167c0.994,0.151,1.957,0.128,2.924,0.2
		c0.992,0.027,2.068-0.034,3.097-0.033c-0.128-0.002-0.028-0.001-0.054-0.002l0.011-0.001l0.023-0.002l0.046-0.004l0.093-0.008
		l0.186-0.018l0.37-0.032l0.74-0.064c0.491-0.054,0.987-0.062,1.473-0.151c0.968-0.182,1.949-0.263,2.895-0.515l1.425-0.325
		l1.394-0.422c0.467-0.13,0.924-0.287,1.371-0.47c0.448-0.174,0.906-0.326,1.348-0.516c0.878-0.391,1.751-0.782,2.582-1.253
		c0.428-0.211,0.826-0.473,1.231-0.719c0.41-0.24,0.805-0.501,1.19-0.771c0.787-0.522,1.518-1.113,2.221-1.717
		c0.338-0.31,0.69-0.616,0.995-0.939c0.16-0.16,0.315-0.319,0.454-0.479c0.136-0.145,0.304-0.351,0.352-0.409l1.922-2.399
		l2.336,2.399l0.376,0.387c0.146,0.151,0.31,0.301,0.477,0.452c0.32,0.305,0.687,0.593,1.037,0.882
		c0.729,0.562,1.481,1.109,2.285,1.586c0.395,0.248,0.795,0.487,1.213,0.701c0.412,0.222,0.815,0.459,1.247,0.646
		c0.839,0.42,1.715,0.764,2.592,1.103c0.44,0.164,0.897,0.29,1.343,0.438c0.445,0.155,0.899,0.281,1.362,0.382l1.375,0.344
		l1.401,0.249c0.946,0.206,1.825,0.221,2.736,0.347c0.436,0.061,1.017,0.045,1.517,0.072l1.448,0.05
		c0.956-0.044,1.919-0.04,2.87-0.114c0.943-0.123,1.906-0.148,2.832-0.353l1.401-0.249l1.376-0.34
		c0.463-0.102,0.917-0.228,1.362-0.383c0.445-0.147,0.902-0.273,1.343-0.438c0.877-0.339,1.753-0.683,2.592-1.103
		c0.432-0.187,0.834-0.426,1.247-0.646c0.419-0.211,0.818-0.453,1.214-0.7c0.804-0.477,1.557-1.023,2.285-1.587
		c0.351-0.289,0.717-0.578,1.037-0.882c0.167-0.151,0.331-0.301,0.478-0.453l0.378-0.386l2.409-2.467l1.836,2.467
		c0.046,0.062,0.217,0.267,0.353,0.412c0.139,0.159,0.294,0.318,0.454,0.479c0.306,0.323,0.656,0.631,0.996,0.94
		c0.703,0.603,1.435,1.192,2.222,1.716c0.772,0.539,1.585,1.037,2.422,1.492c0.831,0.469,1.704,0.86,2.583,1.252
		c0.441,0.189,0.9,0.34,1.348,0.517c0.447,0.184,0.904,0.34,1.371,0.47l1.395,0.422l1.425,0.325
		c0.959,0.253,1.883,0.329,2.833,0.512c0.95,0.132,2.124,0.188,3.016,0.283c0.988,0,1.986,0.064,2.979,0.038
		c0.987-0.069,1.994-0.056,2.978-0.203l1.49-0.167l1.474-0.27c0.496-0.081,0.985-0.188,1.468-0.325
		c0.482-0.131,0.977-0.239,1.457-0.389c0.955-0.313,1.917-0.623,2.854-1.008c0.939-0.377,1.87-0.799,2.764-1.288
		c0.905-0.475,1.777-1.014,2.639-1.582C133.639,54.995,134.467,54.371,135.229,53.656z"/>
</g>
<g>
	<path fill="#010202" d="M112.691,79.802c-0.546,0.905-1.241,1.712-1.954,2.509c-0.739,0.766-1.52,1.507-2.358,2.181
		c-0.415,0.344-0.834,0.688-1.285,0.982c-0.444,0.306-0.883,0.628-1.352,0.898c-0.916,0.587-1.878,1.092-2.854,1.591
		c-0.488,0.247-1,0.436-1.502,0.657c-0.502,0.225-1.014,0.42-1.535,0.587l-1.564,0.521l-1.598,0.408
		c-1.063,0.312-2.156,0.421-3.245,0.625c-0.545,0.101-1.093,0.119-1.642,0.181l-0.824,0.076l-0.413,0.034l-0.207,0.017l-0.104,0.009
		l-0.051,0.004l-0.026,0.002l-0.013,0.001h-0.099c-1.055,0.004-2.049,0.056-3.153,0.021c-1.133-0.087-2.324-0.111-3.411-0.304
		l-1.665-0.243c-0.552-0.107-1.101-0.241-1.649-0.366c-0.552-0.115-1.098-0.26-1.636-0.436c-0.54-0.169-1.087-0.318-1.622-0.508
		c-1.067-0.388-2.125-0.808-3.15-1.313c-1.027-0.494-2.039-1.036-3.01-1.652c-0.982-0.597-1.908-1.296-2.817-2.022
		c-0.449-0.38-0.896-0.749-1.329-1.17c-0.218-0.204-0.436-0.412-0.65-0.64l-0.327-0.347c-0.116-0.13-0.208-0.226-0.373-0.426h4.683
		c-0.163,0.202-0.256,0.298-0.371,0.427l-0.328,0.347c-0.216,0.228-0.434,0.436-0.65,0.64c-0.433,0.421-0.88,0.791-1.329,1.17
		c-0.91,0.729-1.837,1.424-2.816,2.025c-0.972,0.616-1.982,1.158-3.012,1.652c-1.024,0.504-2.08,0.93-3.148,1.316
		c-0.535,0.189-1.082,0.338-1.622,0.508c-0.539,0.176-1.084,0.32-1.637,0.437c-0.551,0.122-1.098,0.26-1.648,0.367l-1.666,0.243
		c-1.104,0.195-2.224,0.207-3.332,0.3c-1.109,0.038-2.218-0.01-3.32-0.015l-1.641-0.143c-0.531-0.062-1.008-0.077-1.583-0.179
		c-1.113-0.203-2.265-0.316-3.314-0.629l-1.599-0.409l-1.564-0.521c-0.521-0.168-1.034-0.363-1.535-0.588
		c-0.502-0.222-1.014-0.412-1.502-0.656c-0.977-0.5-1.938-1.006-2.854-1.594c-0.469-0.271-0.908-0.592-1.352-0.899
		c-0.451-0.295-0.871-0.638-1.285-0.982c-0.839-0.674-1.619-1.416-2.358-2.183c-0.711-0.797-1.406-1.604-1.951-2.511
		c0.807,0.675,1.653,1.271,2.53,1.812c0.875,0.541,1.757,1.056,2.682,1.482c0.914,0.441,1.836,0.851,2.776,1.201
		c0.935,0.366,1.897,0.646,2.853,0.917c0.973,0.222,1.916,0.512,2.9,0.643l1.456,0.249l1.47,0.152
		c0.983,0.135,1.92,0.101,2.865,0.167c0.94,0.018,2.15-0.044,3.005-0.048c0.974-0.102,1.948-0.155,2.908-0.287
		c0.953-0.175,1.921-0.244,2.851-0.496l1.401-0.318l1.372-0.401c0.461-0.122,0.912-0.27,1.354-0.444
		c0.441-0.169,0.894-0.315,1.328-0.5c0.861-0.384,1.73-0.745,2.555-1.194c0.829-0.434,1.64-0.903,2.404-1.43
		c0.783-0.5,1.518-1.062,2.223-1.639c0.339-0.296,0.693-0.591,1-0.901c0.161-0.153,0.317-0.306,0.456-0.458l0.206-0.222l0.142-0.159
		l2.361-2.647l2.321,2.648l0.14,0.16l0.207,0.222c0.139,0.152,0.295,0.305,0.456,0.458c0.307,0.311,0.66,0.604,1,0.901
		c0.705,0.579,1.44,1.137,2.221,1.642c0.765,0.526,1.575,0.996,2.404,1.43c0.825,0.447,1.69,0.813,2.554,1.197
		c0.436,0.185,0.886,0.331,1.329,0.5c0.44,0.175,0.892,0.322,1.354,0.444l1.373,0.404l1.401,0.317
		c0.947,0.254,1.842,0.311,2.771,0.491c0.965,0.135,2.054,0.192,3.073,0.292l1.381,0.03c0.487,0.004,0.983,0.053,1.471,0.021
		c0.972-0.064,1.966-0.037,2.936-0.171l1.471-0.153l1.456-0.249c0.984-0.13,1.928-0.423,2.9-0.643
		c0.955-0.271,1.918-0.552,2.853-0.918c0.939-0.352,1.862-0.761,2.776-1.203c0.924-0.429,1.806-0.942,2.682-1.483
		C111.039,81.073,111.885,80.478,112.691,79.802z"/>
</g>
<g>
	<g>
		<path d="M81.935,8.602h0.854v11.694h-0.854c-1.023-2.815-2.188-5.013-3.491-6.592c-0.942-1.106-2.128-2.079-3.552-2.917
			c-1.425-0.84-3.02-1.497-4.785-1.979c-1.767-0.479-3.553-0.72-5.357-0.72c-1.354,0-2.558,0.188-3.613,0.562
			c-1.059,0.375-1.953,0.93-2.686,1.66c-0.521,0.521-0.938,1.107-1.245,1.758c-0.312,0.651-0.464,1.278-0.464,1.88
			c0,1.142,0.438,2.124,1.316,2.954c0.406,0.407,0.988,0.8,1.746,1.174c0.756,0.375,1.732,0.739,2.93,1.099
			c1.195,0.356,2.868,0.798,5.019,1.318c0.586,0.179,0.982,0.283,1.194,0.315l1.196,0.293l1.904,0.488
			c3.223,0.83,5.574,1.562,7.056,2.197c1.48,0.635,2.742,1.473,3.784,2.515c0.813,0.765,1.444,1.66,1.892,2.686
			c0.448,1.025,0.674,2.134,0.674,3.32c0,1.172-0.255,2.348-0.759,3.528c-0.505,1.18-1.221,2.218-2.146,3.111
			c-1.205,1.237-2.689,2.165-4.456,2.783c-1.768,0.618-3.78,0.93-6.042,0.93c-1.579,0-3.063-0.159-4.456-0.478
			c-1.391-0.315-3.088-0.897-5.09-1.746c-1.305-0.521-2.295-0.875-2.979-1.062c-0.684-0.188-1.327-0.281-1.929-0.281
			c-1.156,0-2.136,0.305-2.942,0.916c-0.805,0.61-1.339,1.477-1.599,2.6H52.2v-15.77h0.854c0.342,2.8,1.473,5.339,3.394,7.617
			c1.155,1.335,2.635,2.574,4.434,3.723c1.798,1.147,3.682,2.039,5.649,2.673c1.971,0.635,3.843,0.952,5.615,0.952
			c1.578,0,3.023-0.26,4.333-0.781c1.312-0.521,2.332-1.245,3.064-2.173c0.73-0.928,1.099-1.978,1.099-3.147
			c0-1.237-0.497-2.354-1.489-3.347c-0.456-0.438-1.046-0.846-1.77-1.221c-0.727-0.374-1.66-0.757-2.811-1.147
			c-1.146-0.391-2.722-0.854-4.724-1.392l-2.439-0.659c-3.811-1.023-6.445-1.823-7.91-2.393c-1.646-0.604-2.936-1.204-3.87-1.809
			c-0.938-0.602-1.745-1.365-2.431-2.295c-1.01-1.302-1.514-2.732-1.514-4.297c0-1.888,0.562-3.584,1.687-5.09
			c1.123-1.505,2.691-2.681,4.712-3.528c2.018-0.846,4.256-1.27,6.714-1.27c3.711,0,7.56,1.034,11.548,3.101
			c1.399,0.7,2.352,1.052,2.856,1.052C80.47,11.41,81.381,10.474,81.935,8.602z"/>
	</g>
</g>
<g>
	<g>
		<path d="M39.246,106.54h17.749l0.049,0.901c-1.449,0.019-2.511,0.212-3.188,0.586c-0.676,0.375-1.014,0.961-1.014,1.76
			c0,0.779,0.146,1.604,0.439,2.466l7.2,19.946l6.958-17.312c-0.568-1.66-1.068-2.881-1.502-3.662
			c-0.431-0.781-0.979-1.489-1.646-2.124c-0.586-0.618-1.192-1.05-1.819-1.294c-0.626-0.244-1.388-0.366-2.282-0.366v-0.901h18.508
			v0.901h-0.903c-1.465,0-2.604,0.249-3.418,0.745c-0.814,0.496-1.221,1.217-1.221,2.16c0,0.635,0.111,1.237,0.342,1.807
			l7.349,20.046l7.202-18.359c0.357-0.992,0.537-1.888,0.537-2.688c0-1.221-0.479-2.132-1.428-2.732
			c-0.953-0.604-2.424-0.928-4.407-0.979l-0.049-0.901h13.694v0.901c-0.912,0.065-1.646,0.208-2.209,0.43
			c-0.562,0.22-1.177,0.582-1.844,1.086c-1.367,1.072-2.531,2.808-3.491,5.2l-10.718,27.244h-0.903l-9.324-25.415l-10.156,25.415
			H56.8L46.937,114.4c-0.861-2.457-1.831-4.229-2.903-5.32c-1.074-1.092-2.387-1.638-3.933-1.638h-0.854L39.246,106.54
			L39.246,106.54z"/>
	</g>
</g>
</svg>
